<?xml version="1.0" encoding="UTF-8"?>
<svg xmlns="http://www.w3.org/2000/svg" version="1.1" width="400" height="400" viewBox="0 0 400 400"><rect x="0" y="0" width="400" height="400" fill="#ffffff"/><g transform="scale(13.793)"><g transform="translate(0,0)"><path fill-rule="evenodd" d="M9 0L9 1L8 1L8 2L9 2L9 3L8 3L8 4L10 4L10 7L11 7L11 4L12 4L12 5L13 5L13 6L12 6L12 9L13 9L13 8L14 8L14 9L15 9L15 10L17 10L17 9L18 9L18 8L17 8L17 9L16 9L16 7L17 7L17 5L20 5L20 3L21 3L21 0L18 0L18 1L20 1L20 2L19 2L19 4L18 4L18 3L17 3L17 2L16 2L16 4L12 4L12 2L13 2L13 1L11 1L11 2L10 2L10 0ZM15 0L15 1L17 1L17 0ZM14 2L14 3L15 3L15 2ZM10 3L10 4L11 4L11 3ZM16 4L16 5L17 5L17 4ZM8 5L8 7L9 7L9 5ZM13 6L13 7L14 7L14 8L15 8L15 7L16 7L16 6L15 6L15 7L14 7L14 6ZM18 6L18 7L19 7L19 6ZM20 6L20 7L21 7L21 6ZM0 8L0 9L4 9L4 12L3 12L3 13L2 13L2 15L1 15L1 14L0 14L0 16L2 16L2 15L3 15L3 13L4 13L4 14L5 14L5 15L10 15L10 14L11 14L11 13L12 13L12 14L13 14L13 15L12 15L12 17L13 17L13 16L14 16L14 17L18 17L18 18L20 18L20 17L21 17L21 18L22 18L22 19L21 19L21 20L19 20L19 21L18 21L18 20L17 20L17 18L15 18L15 19L14 19L14 20L15 20L15 19L16 19L16 20L17 20L17 21L18 21L18 23L20 23L20 27L18 27L18 28L17 28L17 25L18 25L18 26L19 26L19 25L18 25L18 24L14 24L14 23L17 23L17 22L15 22L15 21L12 21L12 19L13 19L13 18L11 18L11 17L10 17L10 16L5 16L5 17L3 17L3 19L2 19L2 20L3 20L3 21L8 21L8 23L9 23L9 21L8 21L8 20L11 20L11 21L10 21L10 24L8 24L8 29L12 29L12 27L13 27L13 26L11 26L11 21L12 21L12 22L13 22L13 23L12 23L12 25L13 25L13 24L14 24L14 25L16 25L16 26L15 26L15 27L14 27L14 28L15 28L15 27L16 27L16 28L17 28L17 29L18 29L18 28L22 28L22 27L23 27L23 26L24 26L24 27L26 27L26 26L24 26L24 25L27 25L27 28L24 28L24 29L27 29L27 28L28 28L28 26L29 26L29 25L28 25L28 24L25 24L25 23L27 23L27 22L29 22L29 20L28 20L28 19L27 19L27 16L28 16L28 15L27 15L27 12L28 12L28 11L27 11L27 12L25 12L25 9L26 9L26 8L25 8L25 9L24 9L24 8L23 8L23 9L22 9L22 8L20 8L20 9L19 9L19 10L18 10L18 12L17 12L17 11L16 11L16 12L17 12L17 14L20 14L20 13L22 13L22 14L21 14L21 16L20 16L20 17L18 17L18 16L19 16L19 15L18 15L18 16L14 16L14 15L16 15L16 13L12 13L12 11L13 11L13 10L11 10L11 11L10 11L10 9L11 9L11 8L6 8L6 9L7 9L7 10L5 10L5 8ZM27 8L27 9L28 9L28 10L29 10L29 9L28 9L28 8ZM8 9L8 10L7 10L7 11L6 11L6 12L7 12L7 13L6 13L6 14L10 14L10 13L11 13L11 12L10 12L10 13L9 13L9 9ZM20 9L20 10L19 10L19 12L18 12L18 13L20 13L20 12L21 12L21 11L22 11L22 10L21 10L21 9ZM23 9L23 12L22 12L22 13L23 13L23 14L22 14L22 17L23 17L23 18L24 18L24 19L25 19L25 21L26 21L26 20L27 20L27 19L25 19L25 18L24 18L24 17L26 17L26 16L27 16L27 15L26 15L26 13L25 13L25 12L24 12L24 9ZM0 11L0 13L1 13L1 12L2 12L2 11ZM14 11L14 12L15 12L15 11ZM23 12L23 13L24 13L24 14L25 14L25 13L24 13L24 12ZM28 13L28 14L29 14L29 13ZM23 15L23 16L24 16L24 15ZM0 17L0 21L1 21L1 18L2 18L2 17ZM6 17L6 18L7 18L7 19L5 19L5 18L4 18L4 19L3 19L3 20L4 20L4 19L5 19L5 20L7 20L7 19L8 19L8 18L10 18L10 17ZM28 17L28 18L29 18L29 17ZM21 21L21 24L24 24L24 21ZM22 22L22 23L23 23L23 22ZM22 25L22 26L21 26L21 27L22 27L22 26L23 26L23 25ZM9 26L9 27L11 27L11 26ZM0 0L0 7L7 7L7 0ZM1 1L1 6L6 6L6 1ZM2 2L2 5L5 5L5 2ZM22 0L22 7L29 7L29 0ZM23 1L23 6L28 6L28 1ZM24 2L24 5L27 5L27 2ZM0 22L0 29L7 29L7 22ZM1 23L1 28L6 28L6 23ZM2 24L2 27L5 27L5 24Z" fill="#000000"/></g></g></svg>
