<?xml version="1.0" encoding="UTF-8"?>
<svg xmlns="http://www.w3.org/2000/svg" version="1.1" width="400" height="400" viewBox="0 0 400 400"><rect x="0" y="0" width="400" height="400" fill="#ffffff"/><g transform="scale(13.793)"><g transform="translate(0,0)"><path fill-rule="evenodd" d="M8 0L8 1L9 1L9 2L8 2L8 5L9 5L9 4L11 4L11 5L10 5L10 10L9 10L9 8L8 8L8 9L7 9L7 8L6 8L6 9L7 9L7 10L6 10L6 11L5 11L5 12L4 12L4 10L5 10L5 9L4 9L4 8L0 8L0 9L1 9L1 10L2 10L2 12L1 12L1 11L0 11L0 13L2 13L2 14L0 14L0 15L1 15L1 16L0 16L0 17L1 17L1 18L0 18L0 19L1 19L1 18L3 18L3 19L2 19L2 20L1 20L1 21L2 21L2 20L4 20L4 21L7 21L7 20L4 20L4 17L7 17L7 18L6 18L6 19L8 19L8 22L9 22L9 20L10 20L10 21L11 21L11 20L12 20L12 19L11 19L11 17L10 17L10 18L9 18L9 16L12 16L12 17L13 17L13 16L12 16L12 14L13 14L13 15L14 15L14 18L13 18L13 21L18 21L18 22L16 22L16 23L15 23L15 22L14 22L14 23L11 23L11 22L10 22L10 23L9 23L9 24L10 24L10 25L8 25L8 29L9 29L9 26L10 26L10 27L11 27L11 26L12 26L12 28L11 28L11 29L12 29L12 28L14 28L14 27L15 27L15 26L18 26L18 29L19 29L19 28L20 28L20 29L22 29L22 26L18 26L18 24L20 24L20 25L24 25L24 26L25 26L25 25L26 25L26 26L27 26L27 25L28 25L28 27L27 27L27 29L28 29L28 27L29 27L29 25L28 25L28 24L26 24L26 22L27 22L27 23L28 23L28 22L29 22L29 21L27 21L27 18L28 18L28 15L29 15L29 13L27 13L27 12L26 12L26 11L28 11L28 12L29 12L29 11L28 11L28 10L29 10L29 8L28 8L28 10L26 10L26 11L25 11L25 13L27 13L27 14L24 14L24 12L23 12L23 13L22 13L22 12L20 12L20 11L24 11L24 10L25 10L25 9L27 9L27 8L24 8L24 10L23 10L23 9L22 9L22 8L21 8L21 6L20 6L20 5L21 5L21 4L20 4L20 3L21 3L21 2L20 2L20 3L19 3L19 1L21 1L21 0L18 0L18 1L16 1L16 0L12 0L12 1L11 1L11 0L10 0L10 1L9 1L9 0ZM14 1L14 2L11 2L11 4L12 4L12 3L13 3L13 5L12 5L12 6L11 6L11 8L12 8L12 6L13 6L13 8L14 8L14 9L15 9L15 7L16 7L16 6L15 6L15 5L16 5L16 4L17 4L17 7L18 7L18 5L19 5L19 3L18 3L18 2L17 2L17 3L16 3L16 1ZM14 3L14 5L13 5L13 6L14 6L14 7L15 7L15 6L14 6L14 5L15 5L15 4L16 4L16 3ZM17 3L17 4L18 4L18 3ZM8 6L8 7L9 7L9 6ZM19 6L19 8L20 8L20 6ZM3 9L3 10L4 10L4 9ZM11 9L11 10L12 10L12 9ZM16 9L16 10L14 10L14 11L11 11L11 13L10 13L10 14L9 14L9 13L8 13L8 12L9 12L9 11L8 11L8 10L7 10L7 11L6 11L6 12L5 12L5 14L4 14L4 12L3 12L3 16L5 16L5 15L6 15L6 16L7 16L7 15L6 15L6 14L8 14L8 16L9 16L9 15L11 15L11 13L12 13L12 12L13 12L13 14L14 14L14 15L15 15L15 17L16 17L16 16L17 16L17 19L19 19L19 21L20 21L20 19L21 19L21 20L22 20L22 18L24 18L24 19L23 19L23 20L26 20L26 19L25 19L25 18L26 18L26 17L27 17L27 15L24 15L24 14L23 14L23 15L22 15L22 14L20 14L20 15L19 15L19 17L18 17L18 14L19 14L19 13L20 13L20 12L19 12L19 11L20 11L20 10L21 10L21 9L20 9L20 10L19 10L19 9ZM17 10L17 11L15 11L15 12L14 12L14 14L16 14L16 15L17 15L17 14L16 14L16 13L18 13L18 12L17 12L17 11L18 11L18 10ZM6 12L6 13L7 13L7 12ZM21 15L21 16L22 16L22 15ZM23 15L23 17L25 17L25 16L24 16L24 15ZM8 18L8 19L9 19L9 18ZM10 19L10 20L11 20L11 19ZM21 21L21 24L24 24L24 21ZM18 22L18 23L17 23L17 24L18 24L18 23L19 23L19 22ZM22 22L22 23L23 23L23 22ZM10 23L10 24L11 24L11 23ZM12 24L12 26L13 26L13 27L14 27L14 26L15 26L15 24ZM10 25L10 26L11 26L11 25ZM13 25L13 26L14 26L14 25ZM16 27L16 28L15 28L15 29L16 29L16 28L17 28L17 27ZM23 28L23 29L24 29L24 28ZM25 28L25 29L26 29L26 28ZM0 0L0 7L7 7L7 0ZM1 1L1 6L6 6L6 1ZM2 2L2 5L5 5L5 2ZM22 0L22 7L29 7L29 0ZM23 1L23 6L28 6L28 1ZM24 2L24 5L27 5L27 2ZM0 22L0 29L7 29L7 22ZM1 23L1 28L6 28L6 23ZM2 24L2 27L5 27L5 24Z" fill="#000000"/></g></g></svg>
